<svg version="1.1" id="Layer_1" xmlns="http://www.w3.org/2000/svg" x="0" y="0" viewBox="0 0 148.9 69.8" xml:space="preserve"><style>.st0{fill:#231f20}</style><path class="st0" d="M14.9 47.1c-3.9 0-7-1.2-9.4-3.5-2.4-2.4-3.7-5.6-3.7-9.3 0-7.6 5.3-12.9 13.7-12.9 3 0 5.8.7 8.4 2v5.8c-2.7-1.8-5.4-2.7-8.1-2.7-4.8.1-7.8 3-7.8 7.8 0 4.6 2.8 7.6 7.4 7.6 2.9 0 5.8-1.1 8.7-3.1v5.8c-2.8 1.6-5.8 2.5-9.2 2.5M31.5 21.8h6.1v10h9.9v-10h6v24.8h-6v-10h-9.9v10h-6.1zM63.2 25c2.4-2.4 5.5-3.5 9.3-3.5 3.8 0 6.9 1.2 9.4 3.5 2.5 2.4 3.8 5.6 3.8 9.3 0 3.7-1.3 6.9-3.8 9.3-2.4 2.4-5.5 3.6-9.4 3.6-3.8 0-6.9-1.2-9.3-3.6-2.5-2.4-3.8-5.6-3.8-9.3 0-3.7 1.3-6.9 3.8-9.3m9.3 16.8c4 0 6.9-3.1 6.9-7.6s-2.9-7.6-6.9-7.6-6.9 3.2-6.9 7.6c0 4.5 2.9 7.6 6.9 7.6M91.6 21.8h10.3c6.5 0 9.6 2.2 9.6 7.2 0 2.7-1.3 4.6-4.2 6 1.2.5 2.2 1.5 2.9 3.1l3.9 8.5h-6.8l-3.1-7.2c-1-2.2-3.4-3-5.8-3h-.7v10.1h-6V21.8zm13.6 7.3c0-1.8-1.1-2.9-3.3-2.9h-4.3V32h4.3c2.3 0 3.3-.9 3.3-2.9M119.5 21.8h9c3.9 0 7 .3 10 2.6 3.1 2.4 4.7 5.8 4.7 9.8 0 4.4-2 8.1-5.7 10.5-2.7 1.8-5.6 1.9-9 1.9h-9V21.8zm6.1 19.8h4.5c4.1 0 7-3.1 7-7.4 0-4.3-2.8-7.4-7-7.4h-4.5v14.8zM59.6 6.4h-3.4V5.1h8.2v1.3H61V15h-1.4zM68.5 5.1h1.4v4.3h5.5V5.1h1.4V15h-1.4v-4.3h-5.5V15h-1.4zM81.7 5.1h5.8v1.3h-4.4v3h4.3v1.2h-4.3v3.1h4.5V15h-5.9zM39.6 63.8c-1.1.6-2.3.9-3.5.9-1.1 0-2.1-.3-3-.9-1.4-1-2.3-2.5-2.3-4.3 0-1.3.6-2.6 1.5-3.6 1-1 2.3-1.5 3.9-1.5 1.3 0 2.4.4 3.3.8v1.5c-1.2-.7-2.2-1-3.3-1-2.3 0-3.9 1.7-3.9 3.8 0 2.1 1.6 3.8 3.8 3.8 1.1 0 2.3-.4 3.5-1.2v1.7zM44.2 55.9c1-1 2.3-1.5 3.6-1.5 1.4 0 2.7.5 3.6 1.5 1 1 1.5 2.2 1.5 3.7 0 1.3-.5 2.6-1.5 3.6s-2.3 1.5-3.7 1.5c-1.4 0-2.7-.5-3.6-1.5-1-1-1.5-2.3-1.5-3.7.1-1.3.7-2.6 1.6-3.6m1 6.4c.7.7 1.6 1.1 2.6 1.1s1.9-.4 2.6-1.1c.7-.7 1.1-1.7 1.1-2.7 0-1-.4-1.9-1.1-2.7-.7-.7-1.6-1.1-2.6-1.1s-1.9.4-2.6 1.1c-.7.7-1.1 1.7-1.1 2.7.1 1 .5 1.9 1.1 2.7M56.9 54.6h1.2l3.5 4.2 3.4-4.2h1.2v9.9h-1.3v-7.7l-3.3 4-3.4-4v7.7h-1.3zM71.3 54.6h3.8c2 0 3.2 1.1 3.2 2.8 0 1.8-1.2 2.8-3.2 2.8h-2.4v4.3h-1.4v-9.9zm3.6 4.4c1.3 0 1.9-.4 1.9-1.6 0-1.1-.6-1.6-1.9-1.6h-2.3V59h2.3zM84.3 54.6h1l4.2 9.9h-1.4l-1.2-2.9h-4.1l-1.2 2.9h-1.4l4.1-9.9zm2 5.7l-1.5-3.6-1.5 3.6h3zM92.9 54.6h1.2l6.4 7.7v-7.7h1.4v9.9h-1.3l-6.3-7.7v7.7h-1.4zM108.9 59.6l-3.7-5h1.7l2.8 3.8 2.8-3.8h1.7l-3.9 5v4.9h-1.4z"/><path d="M143.1 20.2h-.9v2.6h-.6v-2.6h-.9v-.4h2.4v.4zm2.2 1.7l.8-2.1h.8v3h-.5v-2.5l-.9 2.5h-.3l-.9-2.5v2.5h-.5v-3h.8l.7 2.1z"/></svg>