<svg version="1.1" id="Layer_1" xmlns="http://www.w3.org/2000/svg" x="0" y="0" viewBox="0 0 125.4 52.6" xml:space="preserve"><style>.st1{fill:#fff;stroke:#000;stroke-width:.9536;stroke-miterlimit:10}</style><circle cx="50.3" cy="14.1" r="8.1" opacity=".5" fill="#fff" stroke="#000" stroke-width=".789" stroke-miterlimit="10"/><path class="st1" d="M111.9 23.2L101.6 13v6.9H84.4v6.9h17.2v6.9l10.3-10.5z"/><path d="M82.5 29.7l-7.3-12.4c-.8-1.3-2.5-1.9-3.8-1.1-1.2.8-1.6 2.4-.9 3.8l1.9 3.1-1-1.6-.8-1.5-1.3-2.1c-.8-1.4-2.5-1.9-3.8-1.1-1.3.8-1.5 2.5-.7 3.9l1.9 3.5-2.4-4.5c-.8-1.4-2.9-2.1-4.1-1.3-1.3.8-1.4 2.9-.6 4.3l2.8 4.8-7.7-13.3c-.8-1.3-2.5-1.8-3.9-1-1.3.8-1.8 2.7-1 4l11.3 19.3-7.3-1.6s-3.3.1-3.6 3c-.3 3 6.1 2.7 6.1 2.7s6.2.6 10.3 4.7c4.1 4 11.1-2.3 11.1-2.3s3.5-1.9 5.4-3.1c1.9-1.3 1.9-5.8-.6-10.2z" fill="#fff" stroke="#000" stroke-width=".789" stroke-miterlimit="10"/><path class="st1" d="M13.5 23.4l10.3 10.2v-6.9H41v-6.9H23.8V13L13.5 23.4z"/></svg>