<?xml version="1.0" encoding="utf-8"?>
<!-- Generator: Adobe Illustrator 20.0.0, SVG Export Plug-In . SVG Version: 6.00 Build 0)  -->
<svg version="1.1" id="Layer_1" xmlns="http://www.w3.org/2000/svg" xmlns:xlink="http://www.w3.org/1999/xlink" x="0px" y="0px"
	 viewBox="0 0 148.9 69.8" style="enable-background:new 0 0 148.9 69.8;" xml:space="preserve">
<style type="text/css">
	.st0{fill:#231F20;}
</style>
<g>
	<path class="st0" d="M14.9,47.1c-3.9,0-7-1.2-9.4-3.5c-2.4-2.4-3.7-5.6-3.7-9.3c0-7.6,5.3-12.9,13.7-12.9c3,0,5.8,0.7,8.4,2v5.8
		c-2.7-1.8-5.4-2.7-8.1-2.7C11,26.6,8,29.5,8,34.3c0,4.6,2.8,7.6,7.4,7.6c2.9,0,5.8-1.1,8.7-3.1v5.8C21.3,46.2,18.3,47.1,14.9,47.1"
		/>
	<polygon class="st0" points="31.5,21.8 37.6,21.8 37.6,31.8 47.5,31.8 47.5,21.8 53.5,21.8 53.5,46.6 47.5,46.6 47.5,36.6 
		37.6,36.6 37.6,46.6 31.5,46.6 	"/>
	<path class="st0" d="M63.2,25c2.4-2.4,5.5-3.5,9.3-3.5c3.8,0,6.9,1.2,9.4,3.5c2.5,2.4,3.8,5.6,3.8,9.3c0,3.7-1.3,6.9-3.8,9.3
		c-2.4,2.4-5.5,3.6-9.4,3.6c-3.8,0-6.9-1.2-9.3-3.6c-2.5-2.4-3.8-5.6-3.8-9.3C59.4,30.6,60.7,27.4,63.2,25 M72.5,41.8
		c4,0,6.9-3.1,6.9-7.6c0-4.5-2.9-7.6-6.9-7.6c-4,0-6.9,3.2-6.9,7.6C65.6,38.7,68.5,41.8,72.5,41.8"/>
	<path class="st0" d="M91.6,21.8h10.3c6.5,0,9.6,2.2,9.6,7.2c0,2.7-1.3,4.6-4.2,6c1.2,0.5,2.2,1.5,2.9,3.1l3.9,8.5h-6.8l-3.1-7.2
		c-1-2.2-3.4-3-5.8-3c-0.2,0-0.5,0-0.7,0v10.1h-6V21.8z M105.2,29.1c0-1.8-1.1-2.9-3.3-2.9h-4.3V32h4.3
		C104.2,32,105.2,31.1,105.2,29.1"/>
	<path class="st0" d="M119.5,21.8h9c3.9,0,7,0.3,10,2.6c3.1,2.4,4.7,5.8,4.7,9.8c0,4.4-2,8.1-5.7,10.5c-2.7,1.8-5.6,1.9-9,1.9h-9
		V21.8z M125.6,41.6h4.5c4.1,0,7-3.1,7-7.4c0-4.3-2.8-7.4-7-7.4h-4.5V41.6z"/>
	<polygon class="st0" points="59.6,6.4 56.2,6.4 56.2,5.1 64.4,5.1 64.4,6.4 61,6.4 61,15 59.6,15 	"/>
	<polygon class="st0" points="68.5,5.1 69.9,5.1 69.9,9.4 75.4,9.4 75.4,5.1 76.8,5.1 76.8,15 75.4,15 75.4,10.7 69.9,10.7 69.9,15 
		68.5,15 	"/>
	<polygon class="st0" points="81.7,5.1 87.5,5.1 87.5,6.4 83.1,6.4 83.1,9.4 87.4,9.4 87.4,10.6 83.1,10.6 83.1,13.7 87.6,13.7 
		87.6,15 81.7,15 	"/>
	<path class="st0" d="M39.6,63.8c-1.1,0.6-2.3,0.9-3.5,0.9c-1.1,0-2.1-0.3-3-0.9c-1.4-1-2.3-2.5-2.3-4.3c0-1.3,0.6-2.6,1.5-3.6
		c1-1,2.3-1.5,3.9-1.5c1.3,0,2.4,0.4,3.3,0.8v1.5c-1.2-0.7-2.2-1-3.3-1c-2.3,0-3.9,1.7-3.9,3.8c0,2.1,1.6,3.8,3.8,3.8
		c1.1,0,2.3-0.4,3.5-1.2V63.8z"/>
	<path class="st0" d="M44.2,55.9c1-1,2.3-1.5,3.6-1.5c1.4,0,2.7,0.5,3.6,1.5c1,1,1.5,2.2,1.5,3.7c0,1.3-0.5,2.6-1.5,3.6
		c-1,1-2.3,1.5-3.7,1.5c-1.4,0-2.7-0.5-3.6-1.5c-1-1-1.5-2.3-1.5-3.7C42.7,58.2,43.3,56.9,44.2,55.9 M45.2,62.3
		c0.7,0.7,1.6,1.1,2.6,1.1c1,0,1.9-0.4,2.6-1.1c0.7-0.7,1.1-1.7,1.1-2.7c0-1-0.4-1.9-1.1-2.7c-0.7-0.7-1.6-1.1-2.6-1.1
		c-1,0-1.9,0.4-2.6,1.1c-0.7,0.7-1.1,1.7-1.1,2.7C44.2,60.6,44.6,61.5,45.2,62.3"/>
	<polygon class="st0" points="56.9,54.6 58.1,54.6 61.6,58.8 65,54.6 66.2,54.6 66.2,64.5 64.9,64.5 64.9,56.8 61.6,60.8 58.2,56.8 
		58.2,64.5 56.9,64.5 	"/>
	<path class="st0" d="M71.3,54.6h3.8c2,0,3.2,1.1,3.2,2.8c0,1.8-1.2,2.8-3.2,2.8h-2.4v4.3h-1.4V54.6z M74.9,59
		c1.3,0,1.9-0.4,1.9-1.6c0-1.1-0.6-1.6-1.9-1.6h-2.3V59H74.9z"/>
	<path class="st0" d="M84.3,54.6h1l4.2,9.9h-1.4l-1.2-2.9h-4.1l-1.2,2.9h-1.4L84.3,54.6z M86.3,60.3l-1.5-3.6l-1.5,3.6H86.3z"/>
	<polygon class="st0" points="92.9,54.6 94.1,54.6 100.5,62.3 100.5,54.6 101.9,54.6 101.9,64.5 100.6,64.5 94.3,56.8 94.3,64.5 
		92.9,64.5 	"/>
	<polygon class="st0" points="108.9,59.6 105.2,54.6 106.9,54.6 109.7,58.4 112.5,54.6 114.2,54.6 110.3,59.6 110.3,64.5 
		108.9,64.5 	"/>
	<path d="M143.1,20.2h-0.9v2.6h-0.6v-2.6h-0.9v-0.4h2.4V20.2z M145.3,21.9l0.8-2.1h0.8v3h-0.5v-2.5l-0.9,2.5h-0.3l-0.9-2.5v2.5h-0.5
		v-3h0.8L145.3,21.9z"/>
</g>
</svg>
