<?xml version="1.0" encoding="utf-8"?>
<!-- Generator: Adobe Illustrator 21.0.0, SVG Export Plug-In . SVG Version: 6.00 Build 0)  -->
<svg version="1.1" id="Layer_1" xmlns="http://www.w3.org/2000/svg" xmlns:xlink="http://www.w3.org/1999/xlink" x="0px" y="0px"
	 viewBox="0 0 125.4 52.6" style="enable-background:new 0 0 125.4 52.6;" xml:space="preserve">
<style type="text/css">
	.st0{opacity:0.5;fill:#FFFFFF;stroke:#000000;stroke-width:0.7886;stroke-miterlimit:10;enable-background:new    ;}
	.st1{fill:#FFFFFF;stroke:#000000;stroke-width:0.9536;stroke-miterlimit:10;}
	.st2{fill:#FFFFFF;stroke:#000000;stroke-width:0.7886;stroke-miterlimit:10;}
</style>
<g>
	<circle class="st0" cx="50.3" cy="14.1" r="8.1"/>
	<path class="st1" d="M111.9,23.2L101.6,13v6.9H84.4v6.9h17.2v6.9L111.9,23.2z"/>
	<path class="st2" d="M82.5,29.7l-7.3-12.4c-0.8-1.3-2.5-1.9-3.8-1.1c-1.2,0.8-1.6,2.4-0.9,3.8l1.9,3.1l-1-1.6L70.6,20l-1.3-2.1
		c-0.8-1.4-2.5-1.9-3.8-1.1c-1.3,0.8-1.5,2.5-0.7,3.9l1.9,3.5l-2.4-4.5c-0.8-1.4-2.9-2.1-4.1-1.3c-1.3,0.8-1.4,2.9-0.6,4.3l2.8,4.8
		l-7.7-13.3c-0.8-1.3-2.5-1.8-3.9-1c-1.3,0.8-1.8,2.7-1,4l11.3,19.3l-7.3-1.6c0,0-3.3,0.1-3.6,3c-0.3,3,6.1,2.7,6.1,2.7
		s6.2,0.6,10.3,4.7c4.1,4,11.1-2.3,11.1-2.3s3.5-1.9,5.4-3.1C85,38.6,85,34.1,82.5,29.7z"/>
	<path class="st1" d="M13.5,23.4l10.3,10.2v-6.9H41v-6.9H23.8V13L13.5,23.4z"/>
</g>
</svg>
