<?xml version="1.0" encoding="utf-8"?>
<!-- Generator: Adobe Illustrator 21.0.2, SVG Export Plug-In . SVG Version: 6.00 Build 0)  -->
<svg version="1.1" id="Layer_1" xmlns="http://www.w3.org/2000/svg" xmlns:xlink="http://www.w3.org/1999/xlink" x="0px" y="0px"
	 viewBox="0 0 20 20" style="enable-background:new 0 0 20 20;" xml:space="preserve">
<path d="M16.7,16.7c1.8-1.8,2.8-4.2,2.8-6.7s-1-4.9-2.8-6.7S12.5,0.5,10,0.5s-4.9,1-6.7,2.8S0.5,7.5,0.5,10s1,4.9,2.8,6.7
	s4.2,2.8,6.7,2.8S14.9,18.5,16.7,16.7z M1.5,10c0-4.7,3.8-8.5,8.5-8.5s8.5,3.8,8.5,8.5s-3.8,8.5-8.5,8.5S1.5,14.7,1.5,10z"/>
<path d="M4.5,7.5c0-0.1,0-0.3,0.1-0.4C4.8,7,5.2,7,5.4,7.1l4.6,4.6l4.6-4.6c0.2-0.2,0.5-0.2,0.7,0s0.2,0.5,0,0.7l-5,5
	c-0.2,0.2-0.5,0.2-0.7,0l-5-5C4.5,7.8,4.5,7.6,4.5,7.5L4.5,7.5z"/>
</svg>
