<?xml version="1.0" encoding="utf-8"?>
<!-- Generator: Adobe Illustrator 21.0.2, SVG Export Plug-In . SVG Version: 6.00 Build 0)  -->
<svg version="1.1" id="Layer_1" xmlns="http://www.w3.org/2000/svg" xmlns:xlink="http://www.w3.org/1999/xlink" x="0px" y="0px"
	 viewBox="0 0 20 20" style="enable-background:new 0 0 20 20;" xml:space="preserve">
<g>
	<path d="M10,19.5c-2.5,0-4.9-1-6.7-2.8S0.5,12.5,0.5,10c0-2.5,1-4.9,2.8-6.7S7.5,0.5,10,0.5s4.9,1,6.7,2.8s2.8,4.2,2.8,6.7
		s-1,4.9-2.8,6.7S12.5,19.5,10,19.5z M10,1.5c-4.7,0-8.5,3.8-8.5,8.5s3.8,8.5,8.5,8.5s8.5-3.8,8.5-8.5S14.7,1.5,10,1.5z"/>
	<path d="M9.5,15V5c0-0.3,0.2-0.5,0.5-0.5s0.5,0.2,0.5,0.5v10c0,0.3-0.2,0.5-0.5,0.5S9.5,15.3,9.5,15z"/>
	<path d="M5,9.5h10c0.3,0,0.5,0.2,0.5,0.5s-0.2,0.5-0.5,0.5H5c-0.3,0-0.5-0.2-0.5-0.5S4.7,9.5,5,9.5z"/>
</g>
</svg>
