<?xml version="1.0" standalone="no"?>
<!DOCTYPE svg PUBLIC "-//W3C//DTD SVG 1.1//EN" "http://www.w3.org/Graphics/SVG/1.1/DTD/svg11.dtd" >
<svg xmlns="http://www.w3.org/2000/svg">
<metadata>
<json>
<![CDATA[
{
	"fontFamily": "brideliness",
	"majorVersion": 1,
	"minorVersion": 0,
	"version": "Version 1.0",
	"fontId": "brideliness",
	"psName": "brideliness",
	"subFamily": "Regular",
	"fullName": "brideliness",
	"description": "Font generated by IcoMoon."
}
]]>
</json>
</metadata>
<defs>
<font id="brideliness" horiz-adv-x="1024">
<font-face units-per-em="1024" ascent="960" descent="-64" />
<missing-glyph horiz-adv-x="1024" />
<glyph unicode="&#x20;" horiz-adv-x="512" d="" />
<glyph unicode="&#xe900;" glyph-name="cart" data-tags="cart" d="M889.143 636.571h-125.714v8.839c0 134.554-108.036 242.589-242.589 242.589h-15.714c-134.554 0-244.554-108.036-244.554-242.589v-8.839h-125.714l-62.857-628.571h880l-62.857 628.571zM323.429 645.411c0 99.589 82.107 179.732 181.696 179.732h15.714c99.589 0 179.732-80.143 179.732-179.732v-8.839h-377.143v8.839zM142.321 70.857l48.911 502.857h69.339v-71.304c-18.857-10.804-31.429-31.232-31.429-54.411 0-34.768 28.089-62.857 62.857-62.857s62.857 28.089 62.857 62.857c0 23.179-12.571 43.607-31.429 54.411v71.304h377.143v-71.304c-18.857-10.804-31.429-31.232-31.429-54.411 0-34.768 28.089-62.857 62.857-62.857s62.857 28.089 62.857 62.857c0 23.179-12.571 43.607-31.429 54.411v71.304h69.536l48.911-502.857h-739.554z" />
<glyph unicode="&#xe901;" glyph-name="right" data-tags="Right" d="M494.933 827.733c-21.333-21.333 6.4-57.6 128-181.333l153.6-155.733h-345.6c-330.667 0-345.6-2.133-345.6-42.667s14.933-42.667 345.6-42.667h345.6l-153.6-155.733c-125.867-128-151.467-162.133-125.867-181.333 21.333-19.2 70.4 17.067 228.267 177.067l202.667 202.667-202.667 202.667c-162.133 162.133-209.067 198.4-230.4 177.067z" />
<glyph unicode="&#xe902;" glyph-name="left" data-tags="Left" d="M298.667 650.667l-202.667-202.667 206.933-206.933c164.267-164.267 213.333-202.667 234.667-181.333s-6.4 59.733-132.267 185.6l-157.867 160h345.6c330.667 0 345.6 2.133 345.6 42.667s-14.933 42.667-345.6 42.667h-345.6l155.733 157.867c134.4 136.533 172.8 204.8 113.067 204.8-8.533 0-106.667-91.733-217.6-202.667z" />
<glyph unicode="&#xe903;" glyph-name="search" data-tags="Search" d="M290.032 883.48c-35.938-14.798-95.13-61.306-131.066-103.584-118.382-135.294-118.382-317.096 0-452.392 114.154-128.952 257.906-164.89 410.112-101.472l78.218 33.824 139.522-139.522c109.926-107.812 143.75-133.18 164.89-112.040s-4.228 54.964-112.040 164.89l-137.408 139.522 42.28 82.446c147.978 289.616-156.434 617.282-454.506 488.33zM575.42 828.516c95.13-48.622 169.118-169.118 169.118-276.932 0-38.052-23.254-107.812-52.85-156.434-122.61-211.398-412.226-209.284-532.722 2.114-59.192 103.584-61.306 196.6-6.342 304.414 78.218 154.32 262.134 209.284 422.796 126.838z" />
<glyph unicode="&#xe904;" glyph-name="tool-simpleicon" data-tags="lock-symbol" d="M804.57 474.286v193.142c0 161.573-130.992 292.571-292.571 292.571-161.573 0-292.571-130.999-292.571-292.571v-193.142c-24.573-8.008-49.141-16.288-73.146-26.288v-438.857c234.077-97.519 497.363-97.519 731.436 0v438.857c-24.011 10-48.571 18.28-73.146 26.288zM585.143 82.276h-146.283l27.281 163.726c-16.283 13.43-27.281 33.007-27.281 55.711 0 40.424 32.711 73.146 73.139 73.146 40.434 0 73.144-32.723 73.144-73.146 0-22.703-10.998-42.279-27.284-55.711l27.284-163.726zM731.436 494.351c-144.363 34.288-294.438 34.288-438.869 0v173.077c0 120.997 98.436 219.432 219.432 219.432s219.435-98.436 219.435-219.432v-173.077z" />
<glyph unicode="&#xe905;" glyph-name="assignment-return" data-tags="assignment-return" d="M827.467 853.6h-188.604c-18.477 52.277-68.051 90.133-126.863 90.133s-108.385-37.856-126.863-90.133h-188.604c-49.799 0-90.133-40.335-90.133-90.133v-630.933c0-49.799 40.335-90.133 90.133-90.133h630.933c49.799 0 90.133 40.335 90.133 90.133v630.933c0 49.799-40.335 90.133-90.133 90.133zM512 853.6c24.787 0 45.067-20.055 45.067-45.067s-20.28-45.067-45.067-45.067-45.067 20.055-45.067 45.067 20.28 45.067 45.067 45.067zM692.267 312.8h-180.267v-135.2l-225.333 225.333 225.333 225.333v-135.2h180.267v-180.267z" />
<glyph unicode="&#xe906;" glyph-name="checkbox-mark_1" data-tags="checkbox-mark_1" d="M1.6 788.8v-172.8l177.6-136c99.2-75.2 184-134.4 192-131.2 6.4 1.6 156.8 113.6 332.8 248 313.6 238.4 318.4 244.8 320 304v59.2h-1024l1.6-171.2zM688 384c-180.8-176-331.2-320-336-318.4-4.8 0-68.8 75.2-144 168-75.2 91.2-152 187.2-171.2 211.2l-36.8 43.2v-552h1024v384c0 211.2-1.6 384-3.2 382.4-3.2 0-152-144-332.8-318.4z" />
<glyph unicode="&#xe907;" glyph-name="unchecked-checkbox" data-tags="checkbox" d="M0 960v-1024h1024v1024h-1024zM960.001-0.001h-896.001v896.001h896.001v-896.001z" />
<glyph unicode="&#xe908;" glyph-name="checked-mark" data-tags="checked-mark" d="M415.246 250.692l-149.828 149.81c-9.432 9.432-9.432 24.727 0 34.16 9.442 9.444 24.73 9.444 34.162 0l115.666-115.656 309.204 309.214c9.444 9.442 24.73 9.442 34.162 0 9.444-9.432 9.444-24.73 0-34.162l-343.366-343.366zM512.057-64v24.158l-0.037-24.158c-282.311 0-512 229.679-512.020 511.99 0 282.321 229.689 512.010 512 512.010 282.321 0 512-229.689 512-512 0.010-282.321-229.651-512-511.943-512zM512 911.681c-255.676 0-463.681-208.005-463.681-463.681 0.020-255.666 208.033-463.671 463.701-463.671h0.037c255.648 0 463.634 208.005 463.634 463.671 0 255.676-208.015 463.681-463.691 463.681z" />
<glyph unicode="&#xe909;" glyph-name="coffee-cup-icon" data-tags="coffee-cup-icon" d="M275.332 757.61c-12.469 0-22.573 10.102-22.573 22.573v157.245c-0.001 12.469 10.101 22.573 22.573 22.573 12.469 0 22.573-10.104 22.573-22.573v-157.247c-0.001-12.469-10.105-22.571-22.573-22.571zM395.532 757.61c-12.469 0-22.573 10.102-22.573 22.573v157.245c0 12.469 10.104 22.573 22.573 22.573s22.573-10.104 22.573-22.573v-157.247c0-12.469-10.105-22.571-22.573-22.571zM518.604 757.61c-12.469 0-22.573 10.102-22.573 22.573v157.245c0 12.469 10.104 22.573 22.573 22.573s22.574-10.104 22.574-22.573v-157.247c-0.001-12.469-10.105-22.571-22.574-22.571zM690.685-64h-587.436c-12.469 0-22.573 10.104-22.573 22.573s10.104 22.573 22.573 22.573h587.434c12.472 0 22.574-10.104 22.574-22.573s-10.112-22.573-22.573-22.573zM761.346 241.176h-63.745v45.144h63.745c75.443 0 136.831 61.38 136.831 136.822 0 75.455-61.387 136.842-136.832 136.842h-63.744v45.144h63.744c100.34 0.001 181.979-81.637 181.979-181.984-0.001-100.337-81.64-181.967-181.977-181.967zM396.957 8.034c-174.392 0-316.28 141.888-316.28 316.297v383.799h632.579v-383.799c0.001-174.409-141.888-316.297-316.299-316.297zM125.821 662.987v-338.656c0-149.517 121.637-271.145 271.137-271.145 149.518 0 271.147 121.637 271.147 271.145v338.656h-542.283z" />
<glyph unicode="&#xe90a;" glyph-name="diamond-icon" data-tags="diamond-icon" d="M1001.915 583.556h-979.831c-8.595 0-16.404 4.983-20.027 12.775-3.622 7.79-2.394 16.978 3.146 23.542l234.988 278.699c4.196 4.983 10.372 7.854 16.883 7.854h509.862c6.512 0 12.696-2.871 16.883-7.854l234.98-278.699c5.54-6.572 6.766-15.752 3.136-23.542-3.614-7.794-11.431-12.775-20.018-12.775zM69.595 627.727h884.81l-197.734 234.528h-489.333l-197.742-234.528zM512-10.424l-506.806 601.834 33.782 28.453 473.024-561.719 473.023 561.719 33.784-28.453zM512 1.775c-9.373 0-17.713 5.908-20.821 14.744l-205.13 581.771c-2.429 6.9-1.298 14.55 3.039 20.442l205.128 278.699c4.161 5.655 10.762 8.995 17.784 8.995s13.623-3.34 17.793-8.993l205.128-278.699c4.33-5.891 5.47-13.543 3.037-20.442l-205.128-581.771c-3.117-8.838-11.465-14.746-20.83-14.746zM331.589 601.956l180.411-511.68 180.41 511.684-180.41 245.117-180.411-245.121z" />
<glyph unicode="&#xe90b;" glyph-name="shapes" data-tags="shapes" d="M511.987-11.068v0c-5.923 0-11.59 2.379-15.745 6.589l-367.404 372.907c-83.036 83.038-128.838 181.926-128.838 278.347 0 155.685 103.431 260.293 257.385 260.293 132.34 0 184.788-58.788 254.601-140.844 69.813 82.047 122.244 140.844 254.591 140.844 153.971 0 257.422-104.609 257.422-260.293 0-96.422-45.784-195.318-128.919-278.461l-367.36-372.796c-4.155-4.216-9.822-6.586-15.735-6.586zM257.385 862.867c-129.501 0-213.184-84.823-213.184-216.092 0-84.611 41.196-172.403 116.012-247.211l351.774-357.053 351.729 356.936c74.896 74.913 116.083 162.706 116.083 247.324 0 131.269-83.7 216.092-213.221 216.092-114.383 0-155.961-48.886-224.847-129.882l-12.957-15.206c-4.201-4.916-10.337-7.735-16.787-7.735v0c-6.454 0-12.598 2.819-16.787 7.735l-12.872 15.109c-68.919 81.060-110.522 129.983-224.942 129.983z" />
<glyph unicode="&#xe90c;" glyph-name="star-outline" data-tags="star-outline" d="M959.408 615.837h-294.813l-89.945 276.677c-8.087 27.842-33.769 47.241-62.65 47.241-29.079 0-54.903-19.662-62.528-46.836l-89.7-277.084h-294.773c-35.845 0.002-64.999-29.984-64.999-66.828 0-21.419 10.426-41.524 28.183-53.969 6.275-4.359 140.112-102.030 237.484-173.173-37.043-113.694-87.955-269.799-90.351-276.609l-0.529-1.454c-2.473-7.499-3.736-14.871-3.736-21.936 0-36.183 29.333-65.621 65.414-65.621 13.238 0 26.135 4.027 37.836 12.077l237.69 173.029c54.592-39.76 232.983-169.681 238.219-173.399 11.117-7.662 24.004-11.709 37.289-11.709 36.071 0 65.424 29.438 65.424 65.621 0 7.124-1.265 14.548-4.001 22.729-2.577 7.267-53.546 163.494-90.606 277.281 97.295 71.084 231.058 168.721 237.747 173.352 17.482 12.265 27.936 32.457 27.936 54.006 0 36.703-28.985 66.604-64.592 66.604zM966.484 538.298c-6.388-4.302-212.943-155.2-254.297-185.411l-15.295-11.172 5.868-18.022c34.222-105.080 91.016-279.319 96.843-296.358h-0.010c0.907-2.687 1.084-4.464 1.084-5.481 0-7.235-6.037-13.35-13.171-13.35-2.687 0-5.235 0.83-7.292 2.247-4.755 3.378-167.466 121.884-252.826 184.052l-15.388 11.21-267.855-195.028c-2.424-1.66-4.991-2.49-7.67-2.49-7.247 0-13.143 5.992-13.143 13.35 0 1.016 0.207 2.828 1.094 5.585v0.010c5.784 16.916 55.281 168.711 96.805 296.246l5.878 18.022-15.303 11.182c-41.345 30.213-247.9 181.089-253.853 185.118-3.557 2.491-5.67 6.604-5.67 11.011 0 7.755 5.935 14.559 12.728 14.559h332.777l101.712 314.219c1.35 4.831 5.737 9.69 12.492 9.69 6.746 0 11.144-4.859 12.484-9.671l102.136-314.258h332.778c6.689 0 12.332-6.576 12.332-14.351 0.008-4.521-2.105-8.711-5.237-10.909z" />
<glyph unicode="&#xe90d;" glyph-name="user-avatar" data-tags="user-avatar" d="M514.042 251.921c-156.844 0-284.458 127.604-284.458 284.458v139.154c0.010 156.853 127.615 284.466 284.458 284.466 156.863 0 284.476-127.614 284.476-284.466v-139.146c0-156.853-127.614-284.466-284.476-284.466zM514.042 914.92c-131.995 0-239.376-107.39-239.376-239.386v-139.146c0-131.995 107.382-239.376 239.376-239.376 132.004 0 239.396 107.39 239.396 239.376v139.146c0 131.995-107.39 239.386-239.396 239.386zM894.647-64h-765.313c-66.584 0-120.752 54.178-120.752 120.77v106.028c0 39.474 19.854 92.307 114.451 119.87l114.522 31.672c12.010 3.32 24.416-3.715 27.734-15.716 3.318-12.003-3.725-24.416-15.716-27.732l-114.225-31.592c-81.685-23.804-81.685-63.473-81.685-76.502v-106.028c0-41.736 33.946-75.693 75.672-75.693h765.311c41.727 0 75.681 33.957 75.681 75.693v106.028c0 35.171-27.563 60.941-81.91 76.563l-108.925 30.432c-11.991 3.351-18.987 15.787-15.642 27.778 3.353 11.991 15.779 19.006 27.778 15.642l109.094-30.481c94.823-27.263 114.694-80.268 114.694-119.931v-106.028c-0.008-66.597-54.176-120.773-120.77-120.773z" />
<glyph unicode="&#xe90e;" glyph-name="miscellaneous" data-tags="ByZlatkoNajdenovski" d="M1024 537.6l-354.133 51.2-157.867 320-157.867-320-354.133-51.2 256-247.467-59.733-354.133 315.733 166.4 315.733-166.4-59.733 354.133 256 247.467zM512 200.533l-204.8-106.667 38.4 226.133-166.4 162.133 230.4 34.133 102.4 209.067 102.4-209.067 230.4-34.133-166.4-162.133 38.4-230.4-204.8 110.933z" />
<glyph unicode="&#xe90f;" glyph-name="SibCode" data-tags="SibCode" horiz-adv-x="819" d="M227.882 874.399c-10.417 0-18.995-8.579-18.995-18.995v-122.192c6.39 23.313 12.954 46.632 18.995 70.026v52.165h82.218c0-6.528-0.832-12.622-2.268-18.711 47.052-12.191 93.935-24.622 140.903-37.139 1.32 1.666 2.997 3.276 4.536 4.819 10.553 10.553 23.052 17.425 37.706 19.562v7.37c0 6.658 5.292 12.191 11.908 12.191s11.908-5.533 11.908-12.191v-7.37c7.831-1.299 15.445-3.886 22.397-7.654 12.354-6.742 22.814-16.872 28.635-29.769 1.927-4.23 3.844-9.549 3.969-14.743 0.026-1.573-0.212-3.075-0.567-4.536 74.224-19.999 148.567-40.014 222.838-59.821 1.51-0.089 3.015-0.337 4.536-0.567v148.559c0 10.416-8.579 18.995-18.995 18.995h-549.725zM695.388 855.404h82.218v-82.218c-45.428 0-82.218 36.791-82.218 82.218zM268.989 828.186c-8.737 0.535-16.92-5.089-19.278-13.892l-72.294-270.184c-2.696-10.060 2.981-20.269 13.042-22.963l531.297-142.606c10.061-2.696 20.269 3.264 22.963 13.325l72.578 270.184c2.696 10.061-3.264 20.269-13.325 22.963l-531.297 142.323c-1.258 0.336-2.437 0.774-3.685 0.85zM267.856 809.192l79.383-21.263c-11.758-43.88-56.766-69.878-100.646-58.118l21.263 79.383zM503.735 795.866c-6.414-0.087-12.74-2.341-17.861-6.236 14.682-3.93 29.265-7.961 43.945-11.908-0.761 2.056-1.512 4.088-2.835 5.953-4.019 5.612-10.226 10.032-17.011 11.625-2.128 0.495-4.106 0.596-6.236 0.567zM525.567 726.69c1.539 0.21 3.222 0.146 4.819-0.283 6.391-1.711 10.228-8.312 8.506-14.743l-1.984-7.087c7.229-3.281 13.823-7.886 19.562-13.325 10.187-9.709 17.845-22.043 20.129-36.005 0.765-4.583 1.222-10.261 0-15.31-2.515-10.033-13.014-15.991-22.963-13.325-7.361 1.973-12.248 6.463-13.325 12.475-1.463 7.805 0.55 15.925-2.268 23.53-2.431 6.461-6.901 12.016-13.042 15.31-10.279 5.486-23.254 3.577-32.32-3.402-9.653-7.386-13.14-19.781-9.64-31.47 4.97-16.722 17.32-20.621 30.336-29.485 6.539-4.396 13.759-8.059 20.129-12.758 9.3-6.871 17.325-16.959 21.263-28.635 3.223-9.491 3.087-20.592-0.283-33.171-4.411-16.461-13.357-28.578-26.651-36.289-14.155-8.171-30.799-10.062-47.063-7.654l-1.984-6.803c-1.724-6.431-8.068-10.218-14.459-8.506s-10.228 8.312-8.506 14.743l1.984 7.087c-8.394 3.464-16.451 7.95-23.247 13.325-10.568 8.293-18.548 22.842-21.263 37.139-0.887 4.616-1.262 10.271 0 15.31 2.515 10.033 12.974 16.002 22.963 13.325 7.361-1.973 12.237-6.788 13.325-12.758 2.301-12.93 1.617-27.894 17.294-37.99 9.215-5.895 23.763-10.533 39.407-0.85 4.192 2.215 9.5 7.95 11.625 15.877 2.026 7.563 1.465 13.701-1.701 18.711-3.125 5.001-8.337 11.017-16.444 15.877-21.226 12.841-45.841 27.731-54.433 52.449-3.275 9.461-3.098 20.551 0.283 33.171 4.411 16.462 13.357 28.578 26.651 36.289 12.925 7.463 26.681 11.086 41.391 9.357l1.984 7.087c1.292 4.823 5.303 8.157 9.924 8.79zM719.486 688.132l79.667-21.263-21.546-79.383c-43.881 11.758-69.878 56.766-58.118 100.646zM216.824 618.672c43.88-11.758 69.878-57.049 58.118-100.929l-79.383 21.546 21.263 79.383zM9.863 486.84c-2.406-0.246-4.689-1.539-6.236-3.402h-0.283c-1.812-2.194-2.351-5.168-1.701-7.937l49.047-206.394c0.386-1.612 1.113-3.066 2.268-4.252 1.716-1.78 4.047-2.835 6.52-2.835 2.473-0.009 5.075 0.785 6.803 2.551l42.244 43.378c70.837-65.227 178.218-79.994 265.365-28.635 51.965 30.625 87.022 79.13 102.063 132.966 1.143 4.047-0.816 8.809-4.536 10.774s-8.643 0.961-11.341-2.268c-14.629-17.356-32.131-32.653-52.732-44.795-72.031-42.449-159.091-35.667-223.121 9.64l47.346 48.48c2.347 2.402 3.302 6.163 2.268 9.357s-4.063 5.664-7.37 6.236l-213.766 36.856c-0.156 0.038-0.408 0.257-0.567 0.283-0.797 0.134-1.466 0.083-2.268 0zM723.456 479.186c8.085 0.323 16.155-0.631 24.381-2.835l-21.263-79.667-79.383 21.546c9.552 35.653 41.228 59.555 76.265 60.955z" />
<glyph unicode="&#xe910;" glyph-name="delivery-truck" data-tags="delivery-truck  by Freepik" d="M35.93 328.329v435.675c0 24.21 19.625 43.836 43.836 43.836h435.451c24.21 0 43.835-19.627 43.835-43.836v-435.677c0-8.070-6.541-14.612-14.612-14.612h-493.898c-8.072 0-14.612 6.542-14.612 14.614zM387.571 179.076c0-50.213-40.707-90.918-90.918-90.918s-90.918 40.706-90.918 90.918c0 50.214 40.707 90.918 90.918 90.918s90.918-40.704 90.918-90.918zM342.11 179.076c0 25.106-20.353 45.459-45.459 45.459s-45.461-20.353-45.461-45.459 20.355-45.461 45.461-45.461 45.459 20.355 45.459 45.461zM218.345 269.996h-203.732c-8.070 0-14.612-6.542-14.612-14.612v-44.332c0-8.070 6.542-14.612 14.612-14.612h163.301c4.263 29.254 19.029 55.095 40.431 73.556zM863.269 179.076c0-50.213-40.707-90.918-90.918-90.918-50.213 0-90.918 40.706-90.918 90.918 0 50.214 40.706 90.918 90.918 90.918 50.211 0.002 90.918-40.704 90.918-90.918zM817.811 179.076c0 25.106-20.355 45.459-45.461 45.459-25.108 0-45.459-20.353-45.459-45.459s20.353-45.461 45.459-45.461 45.461 20.355 45.461 45.461zM1024 255.384v-44.332c0-8.070-6.542-14.612-14.612-14.612h-118.302c-8.461 58.032-58.405 102.78-118.732 102.78-60.339 0-110.284-44.75-118.746-102.78h-238.217c-4.265 29.253-19.029 55.095-40.431 73.556h225.872v417.951c0 16.14 13.084 29.224 29.224 29.224h137.947c38.842 0 75.145-19.294 96.878-51.484l88.931-131.716c13.044-19.32 20.015-42.099 20.015-65.412v-198.562h35.561c8.070 0 14.612-6.542 14.612-14.612zM875.768 530.598l-71.113 101.050c-2.737 3.889-7.195 6.203-11.95 6.203h-110.925c-8.068 0-14.612-6.542-14.612-14.612v-101.050c0-8.072 6.542-14.612 14.612-14.612h182.041c11.836 0 18.76 13.34 11.947 23.022z" />
<glyph unicode="&#xe911;" glyph-name="speech-bubble" data-tags="ByLastCall MediaInc" d="M687.915 1.228l-258.845 173.119h-218.014c-70.156 0-127.267 58.961-127.267 131.408v457.608c0 72.445 57.081 131.408 127.267 131.408h601.86c70.156 0 127.267-58.961 127.267-131.408v-457.608c0-72.445-57.081-131.408-127.267-131.408h-125.027v-173.119zM211.056 817.475c-28.884 0-52.392-24.284-52.392-54.112v-457.608c0-29.829 23.509-54.112 52.392-54.112h240.134l161.852-108.241v108.241h199.874c28.884 0 52.392 24.284 52.392 54.112v457.608c0 29.829-23.509 54.112-52.392 54.112h-601.86z" />
<glyph unicode="&#xe912;" glyph-name="zoom-in" data-tags="zoom-in" d="M414.336 124.72c102 0 195.264 37.504 267.296 99.136l277.712-277.696c6.304-6.272 14.496-9.408 22.72-9.408 8.208 0 16.4 3.136 22.656 9.408 6.304 6.288 9.424 14.464 9.424 22.688s-3.12 16.416-9.424 22.688l-277.728 277.712c61.664 72 99.168 165.296 99.168 267.312 0 227.12-184.736 411.856-411.824 411.856-227.104 0-411.872-184.736-411.872-411.856-0.016-227.088 184.752-411.84 411.872-411.84zM414.336 884.256c191.664 0 347.664-155.968 347.664-347.68 0-191.696-156-347.664-347.664-347.664-191.728 0-347.696 155.952-347.696 347.664-0.016 191.712 155.952 347.68 347.696 347.68zM290.4 504.464h80.656v-80.656c0-17.712 14.368-32.080 32.096-32.080 17.744 0 32.096 14.352 32.096 32.080v80.656h80.688c17.728 0 32.064 14.368 32.064 32.096s-14.336 32.096-32.064 32.096h-80.688v80.672c0 17.728-14.336 32.080-32.096 32.080-17.712 0-32.096-14.336-32.096-32.080v-80.672h-80.656c-17.712 0-32.096-14.368-32.096-32.096s14.384-32.096 32.096-32.096z" />
<glyph unicode="&#xe913;" glyph-name="shopping_bag" data-tags="shopping_bag" d="M486.6 937.8c-80-10.4-151.4-73.6-173-153.2-3.2-12.4-4.4-23.4-5-53l-1-37.6h-161.4l-1.2-6.4c-1.8-10-85-741.6-85-746.8v-4.8h904v4.6c0 5.2-83.4 737-85 747l-1.2 6.4h-161.4l-1 37.6c-1 44-4 58-19.4 89.4-39 80.4-124.2 128-209.4 116.8zM557 893c31.6-8.6 66.2-31.6 84.6-56.2 24.4-32.4 32.4-58 33.8-108.2l1.2-34.6h-328.6v26.8c0 45.4 7.8 76 26.6 104.8 23.2 35.6 58.2 59.8 100.4 69.2 18.2 4 64.6 3 82-1.8zM308 630.8v-21.2l-8.8-9.8c-15.8-17.4-16.4-38.6-2-55.4 24.2-28.4 70.8-11 70.8 26.2 0 12.2-6.2 25.8-14.2 31.8-5.8 4.4-5.8 4.4-5.8 27v22.6h328v-22.6c0-22.6 0-22.6-5.8-27-8-6-14.2-19.6-14.2-31.8 0-37.2 46.6-54.6 70.8-26.2 14.6 17 13.8 39.2-2.2 55l-8.6 8.8v43.8h125.6l1.2-8.4c2.6-18.8 75.2-657.4 75.2-662.4v-5.2h-812v5.6c0 4.8 72 640 75 662l1.2 8.4h125.8v-21.2z" />
<glyph unicode="&#xe914;" glyph-name="simple-ruler" data-tags="simple-ruler" horiz-adv-x="2048" d="M38.448 448v-204.995h1971.105v409.99h-1971.105v-204.995zM117.292 526.844v-102.497h47.307v204.995h70.96v-94.613h47.307v94.613h70.96v-94.613h47.307v94.613h70.96v-47.307c0-44.941 0.788-47.307 19.711-47.307s19.711 2.366 19.711 47.307v47.307h70.96v-94.613h47.307v94.613h70.96v-204.995h47.307v204.995h70.96v-94.613h47.307v94.613h70.96v-94.613h47.307v94.613h70.96v-94.613h47.307v94.613h70.96v-94.613h47.307v94.613h70.96v-204.995h47.307v204.995h70.96v-94.613h47.307v94.613h70.96v-47.307c0-44.941 0.788-47.307 19.711-47.307s19.711 2.366 19.711 47.307v47.307h70.96v-94.613h47.307v94.613h70.96v-94.613h47.307v94.613h70.96v-204.995h47.307v204.995h55.191v-362.683h-1915.914v362.683h55.191v-102.497z" />
</font>
</defs>
</svg>
