<?xml version="1.0" encoding="utf-8"?>
<!-- Generator: Adobe Illustrator 15.0.2, SVG Export Plug-In . SVG Version: 6.00 Build 0)  -->
<!DOCTYPE svg PUBLIC "-//W3C//DTD SVG 1.1//EN" "http://www.w3.org/Graphics/SVG/1.1/DTD/svg11.dtd">
<svg version="1.1" id="Layer_1" xmlns="http://www.w3.org/2000/svg" xmlns:xlink="http://www.w3.org/1999/xlink" x="0px" y="0px"
	 width="320px" height="40px" viewBox="0 0 320 40" enable-background="new 0 0 320 40" xml:space="preserve">
<g id="Grid" display="none">
	<g display="inline">
		<path d="M39,1v38H1V1H39 M40,0H0v40h40V0L40,0z"/>
	</g>
	<g display="inline">
		<path d="M79,1.001v38H41v-38H79 M80,0.001H40v40h40V0.001L80,0.001z"/>
	</g>
	<g display="inline">
		<path d="M119,1.083v38H81v-38H119 M120,0.083H80v40h40V0.083L120,0.083z"/>
	</g>
	<g display="inline">
		<path d="M159,1v38h-38V1H159 M160,0h-40v40h40V0L160,0z"/>
	</g>
	<g display="inline">
		<path d="M199,1.042v38h-38v-38H199 M200,0.042h-40v40h40V0.042L200,0.042z"/>
	</g>
	<g display="inline">
		<path d="M239,1v38h-38V1H239 M240,0h-40v40h40V0L240,0z"/>
	</g>
	<g display="inline">
		<path d="M279,1v38h-38V1H279 M280,0h-40v40h40V0L280,0z"/>
	</g>
	<g display="inline">
		<path d="M319,1.042v38h-38v-38H319 M320,0.042h-40v40h40V0.042L320,0.042z"/>
	</g>
</g>
<g id="loader">
	<path opacity="0.2" fill="#03101A" enable-background="new    " d="M20,0.159C9.044,0.159,0.16,9.043,0.16,20
		c0,10.958,8.884,19.84,19.84,19.84S39.841,30.958,39.841,20C39.842,9.043,30.957,0.159,20,0.159z M20,35.443
		c-8.53,0-15.445-6.914-15.445-15.443c0-8.531,6.918-15.444,15.445-15.444c8.528,0,15.442,6.915,15.442,15.444
		C35.442,28.529,28.531,35.443,20,35.443z"/>
	<path fill="#03101A" d="M27.717,6.635l2.194-3.803C26.995,1.142,23.617,0.159,20,0.159l0,0v4.398l0,0
		C22.814,4.556,25.444,5.32,27.717,6.635z"/>
</g>
<g id="left-arrow">
	<path fill="#FFFFFF" d="M107.145,9.868c0,0.215-0.083,0.402-0.245,0.566l-9.649,9.648l9.649,9.648
		c0.163,0.164,0.245,0.354,0.245,0.563c0,0.213-0.083,0.396-0.245,0.563l-1.228,1.229c-0.165,0.166-0.352,0.248-0.566,0.248
		c-0.213,0-0.401-0.082-0.564-0.248L93.1,20.648c-0.163-0.167-0.245-0.354-0.245-0.566c0-0.211,0.082-0.4,0.245-0.564l11.443-11.442
		c0.163-0.162,0.351-0.244,0.565-0.244c0.212,0,0.401,0.082,0.565,0.244l1.227,1.229C107.063,9.47,107.145,9.654,107.145,9.868z"/>
</g>
<g id="right-arrow">
	<path fill="#FFFFFF" d="M132.855,30.217c0-0.215,0.082-0.402,0.244-0.566l9.646-9.646l-9.646-9.65
		c-0.162-0.165-0.244-0.354-0.244-0.566s0.082-0.398,0.244-0.563l1.229-1.227c0.164-0.166,0.352-0.248,0.566-0.248
		c0.213,0,0.396,0.082,0.563,0.248L146.9,19.437c0.162,0.164,0.244,0.353,0.244,0.566c0,0.211-0.082,0.399-0.244,0.563
		l-11.443,11.438c-0.162,0.162-0.352,0.244-0.564,0.244c-0.211,0-0.396-0.082-0.563-0.244l-1.229-1.229
		C132.938,30.615,132.855,30.43,132.855,30.217z"/>
</g>
<g id="loader-inverted">
	<path opacity="0.2" fill="#FFFFFF" enable-background="new    " d="M60,0.161c-10.956,0-19.84,8.884-19.84,19.841
		c0,10.958,8.884,19.84,19.84,19.84s19.84-8.882,19.84-19.84C79.842,9.045,70.957,0.161,60,0.161z M60,35.445
		c-8.53,0-15.445-6.914-15.445-15.443c0-8.531,6.918-15.444,15.445-15.444c8.528,0,15.442,6.915,15.442,15.444
		C75.442,28.531,68.531,35.445,60,35.445z"/>
	<path fill="#FFFFFF" d="M67.717,6.637l2.193-3.803c-2.916-1.69-6.293-2.673-9.91-2.673l0,0v4.397l0,0
		C62.814,4.558,65.443,5.321,67.717,6.637z"/>
</g>
<path fill="#FFFFFF" d="M227.023,25.734L221.289,20l5.734-5.735c0.354-0.356,0.354-0.933,0-1.289c-0.355-0.356-0.934-0.356-1.287,0
	L220,18.711l-5.736-5.736c-0.354-0.356-0.931-0.356-1.287,0c-0.354,0.355-0.354,0.933,0,1.289L218.711,20l-5.734,5.734
	c-0.354,0.355-0.354,0.933,0,1.289c0.355,0.354,0.933,0.354,1.287,0L220,21.289l5.736,5.734c0.354,0.354,0.932,0.354,1.287,0
	C227.38,26.667,227.38,26.092,227.023,25.734z"/>
<g>
	<path fill="#FFFFFF" d="M304.116,20.042c0,0.248-0.093,0.462-0.271,0.642l-6.402,6.402c-0.182,0.182-0.396,0.271-0.645,0.271
		s-0.462-0.09-0.643-0.271c-0.182-0.18-0.271-0.395-0.271-0.643V13.64c0-0.248,0.092-0.462,0.271-0.643s0.395-0.272,0.643-0.272
		s0.463,0.091,0.645,0.272l6.402,6.402C304.023,19.58,304.116,19.794,304.116,20.042z"/>
</g>
<g>
	<path fill="#FFFFFF" d="M255.885,20c0,0.248,0.092,0.463,0.271,0.643l6.402,6.402c0.181,0.182,0.396,0.271,0.644,0.271
		s0.462-0.09,0.644-0.271c0.18-0.18,0.271-0.395,0.271-0.643V13.598c0-0.247-0.091-0.462-0.271-0.643
		c-0.181-0.181-0.396-0.272-0.644-0.272s-0.463,0.092-0.644,0.272l-6.402,6.401C255.977,19.538,255.885,19.752,255.885,20z"/>
</g>
<g>
	<path fill="#FFFFFF" d="M172.771,14.042v12h14.457v-12H172.771z M185.045,23.86h-5.046v-3.818h-5.044v-3.818h10.09V23.86z"/>
</g>
</svg>
